<?xml version="1.0" encoding="UTF-8" standalone="no"?>
<!-- Created with Inkscape (http://www.inkscape.org/) -->

<svg
   xmlns:dc="http://purl.org/dc/elements/1.1/"
   xmlns:cc="http://creativecommons.org/ns#"
   xmlns:rdf="http://www.w3.org/1999/02/22-rdf-syntax-ns#"
   xmlns:svg="http://www.w3.org/2000/svg"
   xmlns="http://www.w3.org/2000/svg"
   xmlns:sodipodi="http://sodipodi.sourceforge.net/DTD/sodipodi-0.dtd"
   xmlns:inkscape="http://www.inkscape.org/namespaces/inkscape"
   width="128"
   height="128"
   viewBox="0 0 33.866666 33.866668"
   version="1.1"
   id="svg8"
   inkscape:version="0.92.2 (5c3e80d, 2017-08-06)"
   sodipodi:docname="icon.svg"
   inkscape:export-filename="C:\Users\Brandon\Pictures\Fountainize\icon.png"
   inkscape:export-xdpi="96"
   inkscape:export-ydpi="96">
  <defs
     id="defs2" />
  <sodipodi:namedview
     id="base"
     pagecolor="#ffffff"
     bordercolor="#666666"
     borderopacity="1.0"
     inkscape:pageopacity="0.0"
     inkscape:pageshadow="2"
     inkscape:zoom="3.959798"
     inkscape:cx="66.968333"
     inkscape:cy="54.421445"
     inkscape:document-units="mm"
     inkscape:current-layer="layer1"
     showgrid="false"
     units="px"
     inkscape:window-width="1920"
     inkscape:window-height="1001"
     inkscape:window-x="-9"
     inkscape:window-y="-9"
     inkscape:window-maximized="1" />
  <metadata
     id="metadata5">
    <rdf:RDF>
      <cc:Work
         rdf:about="">
        <dc:format>image/svg+xml</dc:format>
        <dc:type
           rdf:resource="http://purl.org/dc/dcmitype/StillImage" />
        <dc:title></dc:title>
      </cc:Work>
    </rdf:RDF>
  </metadata>
  <g
     inkscape:label="Layer 1"
     inkscape:groupmode="layer"
     id="layer1"
     transform="translate(0,-263.13332)">
    <g
       id="g3804"
       transform="matrix(0.04960937,0,0,0.04960937,4.2333333,267.36666)">
      <circle
         id="circle3707"
         r="256"
         cy="256"
         cx="256"
         style="fill:#273b7a" />
      <path
         id="path3709"
         d="M 297.743,508.594 C 403.682,491.217 487.721,408.823 507.541,303.725 l -151.985,-151.983 -66.513,-8.657 -33.506,33.506 -33.439,-30.346 h -54.122 l -23.795,23.795 -6.82,33.96 67.863,67.863 -7.79,1.272 -51.124,-51.124 -8.949,38.878 65.857,65.857 -81.956,5.368 z"
         style="fill:#121149"
         inkscape:connector-curvature="0" />
      <path
         id="path3711"
         d="m 312.889,135.327 c -24.816,0 -46.349,14.253 -56.889,34.994 -10.54,-20.74 -32.073,-34.994 -56.889,-34.994 -35.171,0 -63.785,28.613 -63.785,63.785 0,3.808 3.088,6.896 6.896,6.896 3.808,0 6.896,-3.088 6.896,-6.896 0,-27.565 22.428,-49.993 49.993,-49.993 27.565,0 49.993,22.428 49.993,49.993 v 142.222 c 0,3.808 3.088,6.896 6.896,6.896 3.808,0 6.896,-3.088 6.896,-6.896 V 199.111 c 0,-27.565 22.428,-49.993 49.993,-49.993 27.565,0 49.993,22.428 49.993,49.993 0,3.808 3.088,6.896 6.896,6.896 3.808,0 6.896,-3.088 6.896,-6.896 -10e-4,-35.171 -28.614,-63.784 -63.785,-63.784 z"
         style="fill:#71e2ef"
         inkscape:connector-curvature="0" />
      <path
         id="path3713"
         d="m 312.889,135.327 c -24.816,0 -46.349,14.253 -56.889,34.994 -0.179,-0.353 -0.388,-0.69 -0.574,-1.04 v 178.891 c 0.193,0.017 0.378,0.059 0.574,0.059 3.808,0 6.896,-3.088 6.896,-6.896 V 199.113 c 0,-27.565 22.428,-49.993 49.993,-49.993 27.565,0 49.993,22.428 49.993,49.993 0,3.808 3.088,6.896 6.896,6.896 3.808,0 6.896,-3.088 6.896,-6.896 -10e-4,-35.173 -28.614,-63.786 -63.785,-63.786 z"
         style="fill:#38c6d9"
         inkscape:connector-curvature="0" />
      <path
         id="path3715"
         d="m 248.661,262.866 -19.382,163.8 H 282.72 L 263.485,264.097 c -4.949,-0.367 -9.892,-0.765 -14.824,-1.231 z"
         style="fill:#eaa22f"
         inkscape:connector-curvature="0" />
      <path
         id="path3717"
         d="m 263.485,264.097 c -2.689,-0.2 -5.375,-0.412 -8.059,-0.634 v 163.204 h 27.295 z"
         style="fill:#e09112"
         inkscape:connector-curvature="0" />
      <path
         id="path3719"
         d="M 327.111,284.444 H 184.889 c -15.71,0 -28.444,-12.734 -28.444,-28.444 v 0 h 199.111 v 0 c 0,15.71 -12.735,28.444 -28.445,28.444 z"
         style="fill:#ff7f4f"
         inkscape:connector-curvature="0" />
      <path
         id="path3721"
         d="m 255.426,256 v 28.444 h 71.685 c 15.71,0 28.444,-12.734 28.444,-28.444 z"
         style="fill:#d35933"
         inkscape:connector-curvature="0" />
      <path
         id="path3723"
         d="M 369.778,341.333 H 142.222 c -15.71,0 -28.444,-12.734 -28.444,-28.444 v 0 h 284.444 v 0 c 0,15.71 -12.734,28.444 -28.444,28.444 z"
         style="fill:#ff7f4f"
         inkscape:connector-curvature="0" />
      <path
         id="path3725"
         d="m 255.426,312.889 v 28.444 h 114.352 c 15.71,0 28.444,-12.734 28.444,-28.444 z"
         style="fill:#d35933"
         inkscape:connector-curvature="0" />
      <path
         id="path3727"
         d="m 142.222,262.896 c -3.808,0 -6.896,-3.088 -6.896,-6.896 v -28.444 c 0,-3.808 3.088,-6.896 6.896,-6.896 3.808,0 6.896,3.088 6.896,6.896 V 256 c 0,3.808 -3.088,6.896 -6.896,6.896 z"
         style="fill:#71e2ef"
         inkscape:connector-curvature="0" />
      <g
         id="g3733">
        <path
           id="path3729"
           d="m 369.778,262.896 c -3.808,0 -6.896,-3.088 -6.896,-6.896 v -28.444 c 0,-3.808 3.088,-6.896 6.896,-6.896 3.808,0 6.896,3.088 6.896,6.896 V 256 c -10e-4,3.808 -3.088,6.896 -6.896,6.896 z"
           style="fill:#38c6d9"
           inkscape:connector-curvature="0" />
        <path
           id="path3731"
           d="m 341.333,234.451 c -3.808,0 -6.896,-3.088 -6.896,-6.896 v -28.444 c 0,-3.808 3.087,-6.896 6.896,-6.896 3.809,0 6.896,3.088 6.896,6.896 v 28.444 c 0,3.809 -3.088,6.896 -6.896,6.896 z"
           style="fill:#38c6d9"
           inkscape:connector-curvature="0" />
      </g>
      <path
         id="path3735"
         d="m 170.667,234.451 c -3.808,0 -6.896,-3.088 -6.896,-6.896 v -28.444 c 0,-3.808 3.088,-6.896 6.896,-6.896 3.808,0 6.896,3.088 6.896,6.896 v 28.444 c -10e-4,3.809 -3.088,6.896 -6.896,6.896 z"
         style="fill:#71e2ef"
         inkscape:connector-curvature="0" />
      <g
         id="g3737" />
      <g
         id="g3739" />
      <g
         id="g3741" />
      <g
         id="g3743" />
      <g
         id="g3745" />
      <g
         id="g3747" />
      <g
         id="g3749" />
      <g
         id="g3751" />
      <g
         id="g3753" />
      <g
         id="g3755" />
      <g
         id="g3757" />
      <g
         id="g3759" />
      <g
         id="g3761" />
      <g
         id="g3763" />
      <g
         id="g3765" />
    </g>
  </g>
</svg>
